name D:\school\WTK\thesis\model\3dpredictsim\Results\debug_batch\Pog_s1_tmt_bCst_d05_k500_ig24_pas.mot
datacolumns 128
datarows 4
range 0.55808813 0.59157342
endheader
time	pelvis_tilt	pelvis_list	pelvis_rotation	pelvis_tx	pelvis_ty	pelvis_tz	hip_flexion_l	hip_adduction_l	hip_rotation_l	hip_flexion_r	hip_adduction_r	hip_rotation_r	knee_angle_l	knee_angle_r	ankle_angle_l	ankle_angle_r	subtalar_angle_l	subtalar_angle_r	tmt_angle_l	tmt_angle_r	mtp_angle_l	mtp_angle_r	lumbar_extension	lumbar_bending	lumbar_rotation	arm_flex_l	arm_add_l	arm_rot_l	arm_flex_r	arm_add_r	arm_rot_r	elbow_flex_l	elbow_flex_r	pro_sup_l	pro_sup_r	glut_med1_l/activation	glut_med2_l/activation	glut_med3_l/activation	glut_min1_l/activation	glut_min2_l/activation	glut_min3_l/activation	semimem_l/activation	semiten_l/activation	bifemlh_l/activation	bifemsh_l/activation	sar_l/activation	add_long_l/activation	add_brev_l/activation	add_mag1_l/activation	add_mag2_l/activation	add_mag3_l/activation	tfl_l/activation	pect_l/activation	grac_l/activation	glut_max1_l/activation	glut_max2_l/activation	glut_max3_l/activation	iliacus_l/activation	psoas_l/activation	quad_fem_l/activation	gem_l/activation	peri_l/activation	rect_fem_l/activation	vas_med_l/activation	vas_int_l/activation	vas_lat_l/activation	med_gas_l/activation	lat_gas_l/activation	soleus_l/activation	tib_post_l/activation	flex_dig_l/activation	flex_hal_l/activation	tib_ant_l/activation	per_brev_l/activation	per_long_l/activation	per_tert_l/activation	ext_dig_l/activation	ext_hal_l/activation	ercspn_l/activation	intobl_l/activation	extobl_l/activation	glut_med1_r/activation	glut_med2_r/activation	glut_med3_r/activation	glut_min1_r/activation	glut_min2_r/activation	glut_min3_r/activation	semimem_r/activation	semiten_r/activation	bifemlh_r/activation	bifemsh_r/activation	sar_r/activation	add_long_r/activation	add_brev_r/activation	add_mag1_r/activation	add_mag2_r/activation	add_mag3_r/activation	tfl_r/activation	pect_r/activation	grac_r/activation	glut_max1_r/activation	glut_max2_r/activation	glut_max3_r/activation	iliacus_r/activation	psoas_r/activation	quad_fem_r/activation	gem_r/activation	peri_r/activation	rect_fem_r/activation	vas_med_r/activation	vas_int_r/activation	vas_lat_r/activation	med_gas_r/activation	lat_gas_r/activation	soleus_r/activation	tib_post_r/activation	flex_dig_r/activation	flex_hal_r/activation	tib_ant_r/activation	per_brev_r/activation	per_long_r/activation	per_tert_r/activation	ext_dig_r/activation	ext_hal_r/activation	ercspn_r/activation	intobl_r/activation	extobl_r/activation	
          0.55808813	         -2.92643908	          2.47193743	         -6.10107955	          0.69761017	          0.85520465	          0.00319418	         32.13322506	          3.32935366	         -2.83215066	        -18.02547462	         -2.06789138	          8.05542765	        -15.48919710	         -9.31303239	          5.48252050	         -1.30800378	         -3.02265298	         11.87574922	          0.06195749	          3.35202910	         -0.10473067	         22.74845100	         -2.12153659	         -1.04850318	          2.02383371	         -9.43344339	        -13.62051050	          6.84031711	          7.55048475	        -13.47838010	         17.72579295	         14.74491023	         40.05042429	         86.51662706	         86.51662706	          0.05821690	          0.05000177	          0.05000188	          0.05000196	          0.05000193	          0.05000351	          0.05930128	          0.05930102	          0.28344139	          0.05000142	          0.05000164	          0.11733250	          0.21572089	          0.15845314	          0.16712325	          0.11171852	          0.05000335	          0.05070189	          0.05930293	          0.05000356	          0.07733984	          0.11556838	          0.05482863	          0.05784197	          0.26771114	          0.05140213	          0.06703004	          0.05000270	          0.14177101	          0.14455801	          0.11962958	          0.05930129	          0.05193123	          0.05930144	          0.05000033	          0.05000789	          0.05040358	          0.52723928	          0.37527636	          0.21404627	          0.27318658	          0.57662131	          0.24361448	          0.05930194	          0.09687279	          0.09638009	          0.25110404	          0.09456776	          0.05050118	          0.30660843	          0.19710946	          0.09915832	          0.05000390	          0.05000063	          0.05000049	          0.07515919	          0.10246234	          0.11320195	          0.05000147	          0.05000125	          0.05000253	          0.05000252	          0.30855243	          0.05028957	          0.05000143	          0.05000676	          0.05000471	          0.05000312	          0.39063714	          0.60947127	          0.05000039	          0.05000144	          0.05000045	          0.24113793	          0.13244904	          0.05007418	          0.05009064	          0.29582277	          0.40088986	          0.28635687	          0.24601591	          0.26790262	          0.33685750	          0.05000005	          0.06844083	          0.17295638	          0.05000036	          0.05000010	          0.05000034	          0.05000005	          0.05000008	          0.05000014	
          0.56924990	         -2.91720443	          2.56994106	         -6.35552971	          0.71484995	          0.85414950	          0.00297325	         31.45452711	          3.76538999	         -2.64524199	        -17.76035372	         -2.37994709	          7.86195741	        -15.38256317	        -11.48445054	          4.89364804	         -2.24773477	         -3.54277269	         13.00591155	          0.07654967	          2.79548131	         -0.09700230	         23.90403261	         -1.89194952	         -1.28652903	          2.11683097	        -10.59221061	        -13.61283663	          6.63741556	          7.26395753	        -13.51167191	         17.94753407	         14.66588607	         41.26109780	         86.51662706	         86.51662706	          0.05000013	          0.05000038	          0.05007914	          0.05000035	          0.05000050	          0.05000051	          0.05000014	          0.05000023	          0.24099806	          0.05000024	          0.05001687	          0.09892972	          0.18188575	          0.33974830	          0.23660449	          0.10082192	          0.05000054	          0.05001933	          0.05000214	          0.05930103	          0.08772869	          0.13886513	          0.05000038	          0.05000142	          0.58013740	          0.13939749	          0.12755775	          0.07033333	          0.23988946	          0.23953874	          0.20321976	          0.05000002	          0.05000007	          0.05000001	          0.05000049	          0.07028487	          0.05000146	          0.62768744	          0.31641509	          0.21331640	          0.50925725	          0.61891292	          0.27015003	          0.05000044	          0.08167826	          0.08126285	          0.21171842	          0.07973484	          0.05265915	          0.25851714	          0.16619291	          0.08360543	          0.05001085	          0.05000106	          0.05000131	          0.06337048	          0.08639175	          0.20299876	          0.15442418	          0.07035934	          0.05006369	          0.05000300	          0.26015628	          0.11538769	          0.05928876	          0.05000361	          0.05000304	          0.05000268	          0.32936564	          0.54603278	          0.05011077	          0.05931653	          0.05930190	          0.20331539	          0.13820915	          0.13916797	          0.13916807	          0.24942281	          0.33801010	          0.24144165	          0.20742839	          0.22588262	          0.28402167	          0.05000006	          0.05770602	          0.14582860	          0.05000028	          0.05000011	          0.05000033	          0.05860115	          0.07033327	          0.05000032	
          0.58041166	         -2.90346644	          2.66968677	         -6.57991724	          0.73236597	          0.85303040	          0.00276972	         30.61467825	          4.12881337	         -2.37120370	        -17.41335629	         -2.67817448	          7.65861846	        -15.73595892	        -13.78491379	          4.35040827	         -3.34115647	         -4.09511888	         14.06035519	         -0.05356223	          2.19202229	         -0.14613001	         24.82908801	         -1.64234052	         -1.53082590	          2.19770985	        -11.74700334	        -13.61069727	          6.50151261	          6.88555395	        -13.54625415	         18.08521444	         14.59347568	         42.45176223	         86.51662706	         86.51662706	          0.30426771	          0.27189050	          0.29808109	          0.05000271	          0.05000147	          0.19677474	          0.09307063	          0.10922546	          0.20978793	          0.05000126	          0.05000197	          0.08341491	          0.19835925	          0.28645916	          0.19959589	          0.14998972	          0.05000105	          0.07031114	          0.15121661	          0.05000046	          0.07396865	          0.11708479	          0.05587081	          0.05000176	          0.48914261	          0.11753318	          0.23360860	          0.05930154	          0.20226283	          0.20196717	          0.17134478	          0.05930153	          0.05930152	          0.05930148	          0.05000078	          0.05929784	          0.05930140	          0.53102240	          0.41387567	          0.20412102	          0.42938121	          0.63527363	          0.22777719	          0.05453874	          0.08341767	          0.06851675	          0.31356783	          0.06722846	          0.05000053	          0.21796945	          0.14012565	          0.07049198	          0.05000274	          0.05000048	          0.05000055	          0.05343086	          0.07284164	          0.17144465	          0.25643874	          0.05932516	          0.05930155	          0.05929832	          0.21935179	          0.09729364	          0.05000311	          0.05010776	          0.05012492	          0.05452309	          0.27770458	          0.49814368	          0.05451996	          0.05001415	          0.05000053	          0.17142529	          0.11733996	          0.11734037	          0.11734006	          0.21030071	          0.28499306	          0.20357139	          0.17489321	          0.19045311	          0.23947293	          0.09535707	          0.11077499	          0.17959925	          0.05000047	          0.14379850	          0.05000198	          0.07247671	          0.05930149	          0.05000030	
          0.59157342	         -2.88725330	          2.76710046	         -6.76951792	          0.74992832	          0.85186375	          0.00255348	         29.65187485	          4.44934161	         -2.07798610	        -16.95174052	         -2.95418600	          7.45199416	        -16.11096464	        -16.25684159	          4.01204067	         -4.48753345	         -4.67242588	         15.02009492	         -0.01700666	          1.56594874	         -0.17045069	         25.26585457	         -1.39481762	         -1.77458728	          2.26786727	        -12.84285816	        -13.61208880	          6.45132454	          6.45484517	        -13.58597731	         18.15776452	         14.49224420	         43.59925712	         86.51662706	         86.51662706	          0.39985536	          0.42703025	          0.46574207	          0.25012962	          0.22970835	          0.32388528	          0.08175259	          0.12491564	          0.17688264	          0.07033424	          0.05000198	          0.07033138	          0.16724660	          0.24152861	          0.21967919	          0.17450041	          0.05000061	          0.05928441	          0.12750008	          0.26120133	          0.19875256	          0.16709400	          0.05000030	          0.05000031	          0.41242047	          0.09909848	          0.19733609	          0.05000015	          0.19496113	          0.24560826	          0.18795465	          0.05000012	          0.05000019	          0.05000003	          0.05000002	          0.05000041	          0.05000035	          0.68079976	          0.34895984	          0.17210526	          0.67283172	          0.68219222	          0.39538980	          0.08064247	          0.07033368	          0.05776990	          0.26438483	          0.05668373	          0.05000010	          0.21135971	          0.11814708	          0.05943542	          0.05003715	          0.05000093	          0.05000083	          0.05000065	          0.06141756	          0.17509043	          0.21621679	          0.05002039	          0.05000236	          0.05000213	          0.18494808	          0.08203452	          0.05000131	          0.05000170	          0.05000107	          0.05000059	          0.23414656	          0.44341154	          0.05000014	          0.05000075	          0.05000043	          0.14453716	          0.09893524	          0.09893557	          0.09893530	          0.17731494	          0.24029178	          0.17164111	          0.14746124	          0.16058082	          0.20191180	          0.18076137	          0.13829576	          0.15142962	          0.31471291	          0.24107720	          0.12857681	          0.10302146	          0.05000006	          0.05000012	
